# xmcd CD database file
#
# Track frame offsets:
#	150
#	12204
#	26095
#	42256
#	60084
#	71280
#	84584
#	99480
#	116097
#	130109
#	145794
#
# Disc length: 2158 seconds
#
# Revision: 0
# Processed by: cddbd v1.5.1PL2 Copyright (c) Steve Scherf et al.
# Submitted via: CDex 1.40Beta9
#
DISCID=86086c0b
DTITLE=Jr and the Roadkill Choir - Old Family Recipe
DYEAR=2006
DGENRE=Country
TTITLE0=I'm Drinkin' You Beautiful
TTITLE1=Redneck with the White Collar Blues
TTITLE2=12 Steps
TTITLE3=I Can't Get Over You
TTITLE4=Redneck Side of Me
TTITLE5=You're Too Ugly To Be Cheatin' On Me
TTITLE6=Shotgun Wedding
TTITLE7=You're Kissin' A Bullfrog
TTITLE8=Our Love Grows
TTITLE9=He Kissed Her Lips
TTITLE10=Santa I Can Explain
EXTD=YEAR: 2006 ID3G: 2
EXTT0=
EXTT1=
EXTT2=
EXTT3=
EXTT4=
EXTT5=
EXTT6=
EXTT7=
EXTT8=
EXTT9=
EXTT10=
PLAYORDER=
